<?xml version="1.0" encoding="UTF-8" standalone="no"?>
<!DOCTYPE svg PUBLIC "-//W3C//DTD SVG 1.1//EN" "http://www.w3.org/Graphics/SVG/1.1/DTD/svg11.dtd">
<svg width="100%" height="100%" viewBox="0 0 2872 3556" version="1.1" xmlns="http://www.w3.org/2000/svg" xmlns:xlink="http://www.w3.org/1999/xlink" xml:space="preserve" xmlns:serif="http://www.serif.com/" style="fill-rule:evenodd;clip-rule:evenodd;stroke-linejoin:round;stroke-miterlimit:2;">
    <g transform="matrix(1,0,0,1,-319.722992,-252.871094)">
        <g>
            <rect x="1413.65" y="252.871" width="136.74" height="136.741" style="fill-rule:nonzero;"/>
            <rect x="1550.39" y="252.871" width="136.74" height="136.741" style="fill-rule:nonzero;"/>
            <rect x="1687.13" y="252.871" width="136.74" height="136.741" style="fill-rule:nonzero;"/>
            <rect x="1823.87" y="252.871" width="136.74" height="136.741" style="fill-rule:nonzero;"/>
            <rect x="1960.61" y="252.871" width="136.74" height="136.741" style="fill-rule:nonzero;"/>
            <rect x="1413.65" y="389.612" width="136.74" height="136.741" style="fill:rgb(244,33,63);fill-rule:nonzero;"/>
            <rect x="1550.39" y="389.612" width="136.74" height="136.741" style="fill:white;fill-rule:nonzero;"/>
            <rect x="1140.17" y="389.612" width="136.74" height="136.741" style="fill-rule:nonzero;"/>
            <rect x="1276.91" y="389.612" width="136.74" height="136.741" style="fill-rule:nonzero;"/>
            <rect x="1687.13" y="389.612" width="136.74" height="136.741" style="fill:white;fill-rule:nonzero;"/>
            <rect x="1823.87" y="389.612" width="136.74" height="136.741" style="fill:white;fill-rule:nonzero;"/>
            <rect x="1960.61" y="389.612" width="136.74" height="136.741" style="fill:rgb(244,33,63);fill-rule:nonzero;"/>
            <rect x="2097.35" y="389.612" width="136.74" height="136.741" style="fill-rule:nonzero;"/>
            <rect x="2234.09" y="389.612" width="136.74" height="136.741" style="fill-rule:nonzero;"/>
            <rect x="1413.65" y="526.353" width="136.74" height="136.74" style="fill:white;fill-rule:nonzero;"/>
            <rect x="1550.39" y="526.353" width="136.74" height="136.74" style="fill:rgb(244,33,63);fill-rule:nonzero;"/>
            <rect x="1140.17" y="526.353" width="136.74" height="136.74" style="fill:rgb(226,19,58);fill-rule:nonzero;"/>
            <rect x="1003.43" y="526.353" width="136.74" height="136.74" style="fill-rule:nonzero;"/>
            <rect x="1003.43" y="663.093" width="136.74" height="136.741" style="fill:rgb(226,19,58);fill-rule:nonzero;"/>
            <rect x="866.686" y="663.093" width="136.744" height="136.741" style="fill-rule:nonzero;"/>
            <rect x="866.686" y="799.834" width="136.744" height="136.741" style="fill:rgb(226,19,58);fill-rule:nonzero;"/>
            <rect x="729.945" y="799.834" width="136.741" height="136.741" style="fill-rule:nonzero;"/>
            <rect x="729.945" y="936.575" width="136.741" height="136.745" style="fill:rgb(226,19,58);fill-rule:nonzero;"/>
            <rect x="593.204" y="936.575" width="136.741" height="136.745" style="fill-rule:nonzero;"/>
            <rect x="593.204" y="1073.32" width="136.741" height="136.74" style="fill-rule:nonzero;"/>
            <rect x="593.204" y="1210.06" width="136.741" height="136.74" style="fill:rgb(226,19,58);fill-rule:nonzero;"/>
            <rect x="456.463" y="1210.06" width="136.741" height="136.74" style="fill-rule:nonzero;"/>
            <rect x="1276.91" y="526.353" width="136.74" height="136.74" style="fill:rgb(244,33,63);fill-rule:nonzero;"/>
            <rect x="1687.13" y="526.353" width="136.74" height="136.74" style="fill:white;fill-rule:nonzero;"/>
            <rect x="1823.87" y="526.353" width="136.74" height="136.74" style="fill:rgb(244,33,63);fill-rule:nonzero;"/>
            <rect x="1960.61" y="526.353" width="136.74" height="136.74" style="fill:white;fill-rule:nonzero;"/>
            <rect x="2097.35" y="526.353" width="136.74" height="136.74" style="fill:rgb(244,33,63);fill-rule:nonzero;"/>
            <rect x="2234.09" y="526.353" width="136.74" height="136.74" style="fill:rgb(226,19,58);fill-rule:nonzero;"/>
            <rect x="2370.83" y="526.353" width="136.74" height="136.74" style="fill-rule:nonzero;"/>
            <rect x="1413.65" y="663.093" width="136.74" height="136.741" style="fill:rgb(244,33,63);fill-rule:nonzero;"/>
            <rect x="1550.39" y="663.093" width="136.74" height="136.741" style="fill:white;fill-rule:nonzero;"/>
            <rect x="1140.17" y="663.093" width="136.74" height="136.741" style="fill:rgb(244,33,63);fill-rule:nonzero;"/>
            <rect x="1276.91" y="663.093" width="136.74" height="136.741" style="fill:white;fill-rule:nonzero;"/>
            <rect x="1687.13" y="663.093" width="136.74" height="136.741" style="fill:rgb(244,33,63);fill-rule:nonzero;"/>
            <rect x="1823.87" y="663.093" width="136.74" height="136.741" style="fill:white;fill-rule:nonzero;"/>
            <rect x="1960.61" y="663.093" width="136.74" height="136.741" style="fill:rgb(244,33,63);fill-rule:nonzero;"/>
            <rect x="2097.35" y="663.093" width="136.74" height="136.741" style="fill:white;fill-rule:nonzero;"/>
            <rect x="2234.09" y="663.093" width="136.74" height="136.741" style="fill:rgb(244,33,63);fill-rule:nonzero;"/>
            <rect x="2370.83" y="663.093" width="136.74" height="136.741" style="fill:rgb(226,19,58);fill-rule:nonzero;"/>
            <rect x="2507.57" y="663.093" width="136.74" height="136.741" style="fill-rule:nonzero;"/>
            <rect x="1003.43" y="799.834" width="136.74" height="136.741" style="fill:rgb(244,33,63);fill-rule:nonzero;"/>
            <rect x="1413.65" y="799.834" width="136.74" height="136.741" style="fill:rgb(244,33,63);fill-rule:nonzero;"/>
            <rect x="1550.39" y="799.834" width="136.74" height="136.741" style="fill:white;fill-rule:nonzero;"/>
            <rect x="1140.17" y="799.834" width="136.74" height="136.741" style="fill:rgb(244,33,63);fill-rule:nonzero;"/>
            <rect x="1276.91" y="799.834" width="136.74" height="136.741" style="fill:white;fill-rule:nonzero;"/>
            <rect x="1687.13" y="799.834" width="136.74" height="136.741" style="fill:rgb(244,33,63);fill-rule:nonzero;"/>
            <rect x="1823.87" y="799.834" width="136.74" height="136.741" style="fill:white;fill-rule:nonzero;"/>
            <rect x="1960.61" y="799.834" width="136.74" height="136.741" style="fill:rgb(244,33,63);fill-rule:nonzero;"/>
            <rect x="2097.35" y="799.834" width="136.74" height="136.741" style="fill:white;fill-rule:nonzero;"/>
            <rect x="2234.09" y="799.834" width="136.74" height="136.741" style="fill:rgb(244,33,63);fill-rule:nonzero;"/>
            <rect x="2370.83" y="799.834" width="136.74" height="136.741" style="fill:rgb(244,33,63);fill-rule:nonzero;"/>
            <rect x="2507.57" y="799.834" width="136.74" height="136.741" style="fill:rgb(226,19,58);fill-rule:nonzero;"/>
            <rect x="2644.31" y="799.834" width="136.74" height="136.741" style="fill-rule:nonzero;"/>
            <rect x="866.686" y="936.575" width="136.744" height="136.745" style="fill:rgb(244,33,63);fill-rule:nonzero;"/>
            <rect x="1003.43" y="936.575" width="136.74" height="136.745" style="fill:rgb(244,33,63);fill-rule:nonzero;"/>
            <rect x="1413.65" y="936.575" width="136.74" height="136.745" style="fill:white;fill-rule:nonzero;"/>
            <rect x="1550.39" y="936.575" width="136.74" height="136.745" style="fill:white;fill-rule:nonzero;"/>
            <rect x="1140.17" y="936.575" width="136.74" height="136.745" style="fill:rgb(244,33,63);fill-rule:nonzero;"/>
            <rect x="1276.91" y="936.575" width="136.74" height="136.745" style="fill:rgb(244,33,63);fill-rule:nonzero;"/>
            <rect x="1687.13" y="936.575" width="136.74" height="136.745" style="fill:white;fill-rule:nonzero;"/>
            <rect x="1823.87" y="936.575" width="136.74" height="136.745" style="fill:white;fill-rule:nonzero;"/>
            <rect x="1960.61" y="936.575" width="136.74" height="136.745" style="fill:white;fill-rule:nonzero;"/>
            <rect x="2097.35" y="936.575" width="136.74" height="136.745" style="fill:rgb(244,33,63);fill-rule:nonzero;"/>
            <rect x="2234.09" y="936.575" width="136.74" height="136.745" style="fill:rgb(244,33,63);fill-rule:nonzero;"/>
            <rect x="2370.83" y="936.575" width="136.74" height="136.745" style="fill:rgb(244,33,63);fill-rule:nonzero;"/>
            <rect x="2507.57" y="936.575" width="136.74" height="136.745" style="fill:rgb(244,33,63);fill-rule:nonzero;"/>
            <rect x="2644.31" y="936.575" width="136.74" height="136.745" style="fill:rgb(226,19,58);fill-rule:nonzero;"/>
            <rect x="2781.05" y="936.575" width="136.75" height="136.745" style="fill-rule:nonzero;"/>
            <rect x="866.686" y="1073.32" width="136.744" height="136.74" style="fill:rgb(244,33,63);fill-rule:nonzero;"/>
            <rect x="729.945" y="1073.32" width="136.741" height="136.74" style="fill:rgb(226,19,58);fill-rule:nonzero;"/>
            <rect x="1003.43" y="1073.32" width="136.74" height="136.74" style="fill:rgb(244,33,63);fill-rule:nonzero;"/>
            <rect x="1140.17" y="1073.32" width="136.74" height="136.74" style="fill:rgb(226,19,58);fill-rule:nonzero;"/>
            <rect x="1550.39" y="1073.32" width="136.74" height="136.74" style="fill:rgb(226,19,58);fill-rule:nonzero;"/>
            <rect x="1687.13" y="1073.32" width="136.74" height="136.74" style="fill:rgb(226,19,58);fill-rule:nonzero;"/>
            <rect x="1276.91" y="1073.32" width="136.74" height="136.74" style="fill:rgb(226,19,58);fill-rule:nonzero;"/>
            <rect x="1413.65" y="1073.32" width="136.74" height="136.74" style="fill:rgb(226,19,58);fill-rule:nonzero;"/>
            <rect x="1823.87" y="1073.32" width="136.74" height="136.74" style="fill:rgb(226,19,58);fill-rule:nonzero;"/>
            <rect x="1960.61" y="1073.32" width="136.74" height="136.74" style="fill:rgb(226,19,58);fill-rule:nonzero;"/>
            <rect x="2097.35" y="1073.32" width="136.74" height="136.74" style="fill:rgb(226,19,58);fill-rule:nonzero;"/>
            <rect x="2234.09" y="1073.32" width="136.74" height="136.74" style="fill:rgb(226,19,58);fill-rule:nonzero;"/>
            <rect x="2370.83" y="1073.32" width="136.74" height="136.74" style="fill:rgb(244,33,63);fill-rule:nonzero;"/>
            <rect x="2507.57" y="1073.32" width="136.74" height="136.74" style="fill:rgb(244,33,63);fill-rule:nonzero;"/>
            <rect x="2644.31" y="1073.32" width="136.74" height="136.74" style="fill:rgb(226,19,58);fill-rule:nonzero;"/>
            <rect x="2781.05" y="1073.32" width="136.75" height="136.74" style="fill-rule:nonzero;"/>
            <rect x="866.686" y="1210.06" width="136.744" height="136.74" style="fill:rgb(226,19,58);fill-rule:nonzero;"/>
            <rect x="729.945" y="1210.06" width="136.741" height="136.74" style="fill:rgb(244,33,63);fill-rule:nonzero;"/>
            <rect x="1003.43" y="1210.06" width="136.74" height="136.74" style="fill:rgb(226,19,58);fill-rule:nonzero;"/>
            <rect x="1140.17" y="1210.06" width="136.74" height="136.74" style="fill:rgb(244,33,63);fill-rule:nonzero;"/>
            <rect x="1550.39" y="1210.06" width="136.74" height="136.74" style="fill:rgb(244,33,63);fill-rule:nonzero;"/>
            <rect x="1687.13" y="1210.06" width="136.74" height="136.74" style="fill:rgb(244,33,63);fill-rule:nonzero;"/>
            <rect x="1276.91" y="1210.06" width="136.74" height="136.74" style="fill:rgb(244,33,63);fill-rule:nonzero;"/>
            <rect x="1413.65" y="1210.06" width="136.74" height="136.74" style="fill:rgb(244,33,63);fill-rule:nonzero;"/>
            <rect x="1823.87" y="1210.06" width="136.74" height="136.74" style="fill:rgb(244,33,63);fill-rule:nonzero;"/>
            <rect x="1960.61" y="1210.06" width="136.74" height="136.74" style="fill:rgb(244,33,63);fill-rule:nonzero;"/>
            <rect x="2097.35" y="1210.06" width="136.74" height="136.74" style="fill:rgb(244,33,63);fill-rule:nonzero;"/>
            <rect x="2234.09" y="1210.06" width="136.74" height="136.74" style="fill:rgb(244,33,63);fill-rule:nonzero;"/>
            <rect x="2370.83" y="1210.06" width="136.74" height="136.74" style="fill:rgb(226,19,58);fill-rule:nonzero;"/>
            <rect x="2507.57" y="1210.06" width="136.74" height="136.74" style="fill:rgb(226,19,58);fill-rule:nonzero;"/>
            <rect x="2644.31" y="1210.06" width="136.74" height="136.74" style="fill:rgb(244,33,63);fill-rule:nonzero;"/>
            <rect x="2781.05" y="1210.06" width="136.75" height="136.74" style="fill:rgb(226,19,58);fill-rule:nonzero;"/>
            <rect x="593.204" y="1346.8" width="136.741" height="136.74" style="fill:rgb(244,33,63);fill-rule:nonzero;"/>
            <rect x="456.463" y="1346.8" width="136.741" height="136.74" style="fill-rule:nonzero;"/>
            <rect x="866.686" y="1346.8" width="136.744" height="136.74" style="fill:rgb(244,33,63);fill-rule:nonzero;"/>
            <rect x="729.945" y="1346.8" width="136.741" height="136.74" style="fill:rgb(226,19,58);fill-rule:nonzero;"/>
            <rect x="1003.43" y="1346.8" width="136.74" height="136.74" style="fill:rgb(244,33,63);fill-rule:nonzero;"/>
            <rect x="1140.17" y="1346.8" width="136.74" height="136.74" style="fill:rgb(226,19,58);fill-rule:nonzero;"/>
            <rect x="1550.39" y="1346.8" width="136.74" height="136.74" style="fill:rgb(226,19,58);fill-rule:nonzero;"/>
            <rect x="1687.13" y="1346.8" width="136.74" height="136.74" style="fill:rgb(226,19,58);fill-rule:nonzero;"/>
            <rect x="1276.91" y="1346.8" width="136.74" height="136.74" style="fill:rgb(226,19,58);fill-rule:nonzero;"/>
            <rect x="1413.65" y="1346.8" width="136.74" height="136.74" style="fill:rgb(226,19,58);fill-rule:nonzero;"/>
            <rect x="1823.87" y="1346.8" width="136.74" height="136.74" style="fill:rgb(226,19,58);fill-rule:nonzero;"/>
            <rect x="1960.61" y="1346.8" width="136.74" height="136.74" style="fill:rgb(226,19,58);fill-rule:nonzero;"/>
            <rect x="2097.35" y="1346.8" width="136.74" height="136.74" style="fill:rgb(226,19,58);fill-rule:nonzero;"/>
            <rect x="2234.09" y="1346.8" width="136.74" height="136.74" style="fill:rgb(226,19,58);fill-rule:nonzero;"/>
            <rect x="2370.83" y="1346.8" width="136.74" height="136.74" style="fill:rgb(244,33,63);fill-rule:nonzero;"/>
            <rect x="2507.57" y="1346.8" width="136.74" height="136.74" style="fill:rgb(244,33,63);fill-rule:nonzero;"/>
            <rect x="2644.31" y="1346.8" width="136.74" height="136.74" style="fill:rgb(226,19,58);fill-rule:nonzero;"/>
            <rect x="2781.05" y="1346.8" width="136.75" height="136.74" style="fill:rgb(244,33,63);fill-rule:nonzero;"/>
            <rect x="593.204" y="1483.54" width="136.741" height="136.74" style="fill:rgb(226,19,58);fill-rule:nonzero;"/>
            <rect x="456.463" y="1483.54" width="136.741" height="136.74" style="fill:rgb(226,19,58);fill-rule:nonzero;"/>
            <rect x="319.723" y="1483.54" width="136.74" height="136.74" style="fill-rule:nonzero;"/>
            <rect x="866.686" y="1483.54" width="136.744" height="136.74" style="fill:rgb(226,19,58);fill-rule:nonzero;"/>
            <rect x="729.945" y="1483.54" width="136.741" height="136.74" style="fill:rgb(244,33,63);fill-rule:nonzero;"/>
            <rect x="1003.43" y="1483.54" width="136.74" height="136.74" style="fill:rgb(226,19,58);fill-rule:nonzero;"/>
            <rect x="1140.17" y="1483.54" width="136.74" height="136.74" style="fill-rule:nonzero;"/>
            <rect x="1550.39" y="1483.54" width="136.74" height="136.74" style="fill:rgb(255,202,159);fill-rule:nonzero;"/>
            <rect x="1687.13" y="1483.54" width="136.74" height="136.74" style="fill:rgb(255,202,159);fill-rule:nonzero;"/>
            <rect x="1276.91" y="1483.54" width="136.74" height="136.74" style="fill-rule:nonzero;"/>
            <rect x="1413.65" y="1483.54" width="136.74" height="136.74" style="fill:rgb(244,183,137);fill-rule:nonzero;"/>
            <rect x="1823.87" y="1483.54" width="136.74" height="136.74" style="fill:rgb(255,202,159);fill-rule:nonzero;"/>
            <rect x="1960.61" y="1483.54" width="136.74" height="136.74" style="fill:rgb(244,183,137);fill-rule:nonzero;"/>
            <rect x="2097.35" y="1483.54" width="136.74" height="136.74" style="fill-rule:nonzero;"/>
            <rect x="2234.09" y="1483.54" width="136.74" height="136.74" style="fill-rule:nonzero;"/>
            <rect x="2370.83" y="1483.54" width="136.74" height="136.74" style="fill:rgb(226,19,58);fill-rule:nonzero;"/>
            <rect x="2507.57" y="1483.54" width="136.74" height="136.74" style="fill:rgb(226,19,58);fill-rule:nonzero;"/>
            <rect x="2644.31" y="1483.54" width="136.74" height="136.74" style="fill:rgb(244,33,63);fill-rule:nonzero;"/>
            <rect x="2781.05" y="1483.54" width="136.75" height="136.74" style="fill:rgb(226,19,58);fill-rule:nonzero;"/>
            <rect x="2917.8" y="1483.54" width="136.74" height="136.74" style="fill:rgb(226,19,58);fill-rule:nonzero;"/>
            <rect x="3054.54" y="1483.54" width="136.74" height="136.74" style="fill-rule:nonzero;"/>
            <rect x="593.204" y="1620.28" width="136.741" height="136.74" style="fill:rgb(226,19,58);fill-rule:nonzero;"/>
            <rect x="456.463" y="1620.28" width="136.741" height="136.74" style="fill:rgb(226,19,58);fill-rule:nonzero;"/>
            <rect x="319.723" y="1620.28" width="136.74" height="136.74" style="fill-rule:nonzero;"/>
            <rect x="866.686" y="1620.28" width="136.744" height="136.74" style="fill:rgb(226,19,58);fill-rule:nonzero;"/>
            <rect x="729.945" y="1620.28" width="136.741" height="136.74" style="fill:rgb(226,19,58);fill-rule:nonzero;"/>
            <rect x="1003.43" y="1620.28" width="136.74" height="136.74" style="fill-rule:nonzero;"/>
            <rect x="1140.17" y="1620.28" width="136.74" height="136.74" style="fill:rgb(244,183,137);fill-rule:nonzero;"/>
            <rect x="1550.39" y="1620.28" width="136.74" height="136.74" style="fill:rgb(255,202,159);fill-rule:nonzero;"/>
            <rect x="1687.13" y="1620.28" width="136.74" height="136.74" style="fill:rgb(255,202,159);fill-rule:nonzero;"/>
            <rect x="1276.91" y="1620.28" width="136.74" height="136.74" style="fill:rgb(244,183,137);fill-rule:nonzero;"/>
            <rect x="1413.65" y="1620.28" width="136.74" height="136.74" style="fill-rule:nonzero;"/>
            <rect x="1823.87" y="1620.28" width="136.74" height="136.74" style="fill:rgb(255,202,159);fill-rule:nonzero;"/>
            <rect x="1960.61" y="1620.28" width="136.74" height="136.74" style="fill-rule:nonzero;"/>
            <rect x="2097.35" y="1620.28" width="136.74" height="136.74" style="fill:rgb(244,183,137);fill-rule:nonzero;"/>
            <rect x="2234.09" y="1620.28" width="136.74" height="136.74" style="fill:rgb(244,183,137);fill-rule:nonzero;"/>
            <rect x="2370.83" y="1620.28" width="136.74" height="136.74" style="fill-rule:nonzero;"/>
            <rect x="2507.57" y="1620.28" width="136.74" height="136.74" style="fill:rgb(226,19,58);fill-rule:nonzero;"/>
            <rect x="2644.31" y="1620.28" width="136.74" height="136.74" style="fill:rgb(226,19,58);fill-rule:nonzero;"/>
            <rect x="2781.05" y="1620.28" width="136.75" height="136.74" style="fill:rgb(226,19,58);fill-rule:nonzero;"/>
            <rect x="2917.8" y="1620.28" width="136.74" height="136.74" style="fill:rgb(226,19,58);fill-rule:nonzero;"/>
            <rect x="3054.54" y="1620.28" width="136.74" height="136.74" style="fill-rule:nonzero;"/>
            <rect x="593.204" y="1757.02" width="136.741" height="136.74" style="fill:rgb(102,62,33);fill-rule:nonzero;"/>
            <rect x="456.463" y="1757.02" width="136.741" height="136.74" style="fill:rgb(226,19,58);fill-rule:nonzero;"/>
            <rect x="319.723" y="1757.02" width="136.74" height="136.74" style="fill-rule:nonzero;"/>
            <rect x="866.686" y="1757.02" width="136.744" height="136.74" style="fill:rgb(255,202,159);fill-rule:nonzero;"/>
            <rect x="729.945" y="1757.02" width="136.741" height="136.74" style="fill:rgb(102,62,33);fill-rule:nonzero;"/>
            <rect x="1003.43" y="1757.02" width="136.74" height="136.74" style="fill:rgb(255,202,159);fill-rule:nonzero;"/>
            <rect x="1140.17" y="1757.02" width="136.74" height="136.74" style="fill:white;fill-rule:nonzero;"/>
            <rect x="1550.39" y="1757.02" width="136.74" height="136.74" style="fill:rgb(255,204,153);fill-rule:nonzero;"/>
            <rect x="1687.13" y="1757.02" width="136.74" height="136.74" style="fill:rgb(255,202,159);fill-rule:nonzero;"/>
            <rect x="1276.91" y="1757.02" width="136.74" height="136.74" style="fill:white;fill-rule:nonzero;"/>
            <rect x="1413.65" y="1757.02" width="136.74" height="136.74" style="fill:white;fill-rule:nonzero;"/>
            <rect x="1823.87" y="1757.02" width="136.74" height="136.74" style="fill:rgb(255,202,159);fill-rule:nonzero;"/>
            <rect x="1960.61" y="1757.02" width="136.74" height="136.74" style="fill:white;fill-rule:nonzero;"/>
            <rect x="2097.35" y="1757.02" width="136.74" height="136.74" style="fill:white;fill-rule:nonzero;"/>
            <rect x="2234.09" y="1757.02" width="136.74" height="136.74" style="fill:white;fill-rule:nonzero;"/>
            <rect x="2370.83" y="1757.02" width="136.74" height="136.74" style="fill:rgb(255,202,159);fill-rule:nonzero;"/>
            <rect x="2507.57" y="1757.02" width="136.74" height="136.74" style="fill:rgb(255,202,159);fill-rule:nonzero;"/>
            <rect x="2644.31" y="1757.02" width="136.74" height="136.74" style="fill:rgb(102,62,33);fill-rule:nonzero;"/>
            <rect x="2781.05" y="1757.02" width="136.75" height="136.74" style="fill:rgb(102,62,33);fill-rule:nonzero;"/>
            <rect x="2917.8" y="1757.02" width="136.74" height="136.74" style="fill:rgb(226,19,58);fill-rule:nonzero;"/>
            <rect x="3054.54" y="1757.02" width="136.74" height="136.74" style="fill-rule:nonzero;"/>
            <rect x="593.204" y="1893.76" width="136.741" height="136.74" style="fill:rgb(102,62,33);fill-rule:nonzero;"/>
            <rect x="456.463" y="1893.76" width="136.741" height="136.74" style="fill:rgb(226,19,58);fill-rule:nonzero;"/>
            <rect x="319.723" y="1893.76" width="136.74" height="136.74" style="fill-rule:nonzero;"/>
            <rect x="866.686" y="1893.76" width="136.744" height="136.74" style="fill:rgb(255,202,159);fill-rule:nonzero;"/>
            <rect x="729.945" y="1893.76" width="136.741" height="136.74" style="fill:rgb(102,62,33);fill-rule:nonzero;"/>
            <rect x="1003.43" y="1893.76" width="136.74" height="136.74" style="fill:rgb(255,202,159);fill-rule:nonzero;"/>
            <rect x="1140.17" y="1893.76" width="136.74" height="136.74" style="fill:white;fill-rule:nonzero;"/>
            <rect x="1550.39" y="1893.76" width="136.74" height="136.74" style="fill:rgb(255,202,159);fill-rule:nonzero;"/>
            <rect x="1687.13" y="1893.76" width="136.74" height="136.74" style="fill:rgb(255,202,159);fill-rule:nonzero;"/>
            <rect x="1276.91" y="1893.76" width="136.74" height="136.74" style="fill:rgb(37,156,244);fill-rule:nonzero;"/>
            <rect x="1413.65" y="1893.76" width="136.74" height="136.74" style="fill-rule:nonzero;"/>
            <rect x="1823.87" y="1893.76" width="136.74" height="136.74" style="fill:rgb(255,202,159);fill-rule:nonzero;"/>
            <rect x="1960.61" y="1893.76" width="136.74" height="136.74" style="fill-rule:nonzero;"/>
            <rect x="2097.35" y="1893.76" width="136.74" height="136.74" style="fill:rgb(37,156,244);fill-rule:nonzero;"/>
            <rect x="2234.09" y="1893.76" width="136.74" height="136.74" style="fill:white;fill-rule:nonzero;"/>
            <rect x="2370.83" y="1893.76" width="136.74" height="136.74" style="fill:rgb(255,202,159);fill-rule:nonzero;"/>
            <rect x="2507.57" y="1893.76" width="136.74" height="136.74" style="fill:rgb(255,202,159);fill-rule:nonzero;"/>
            <rect x="2644.31" y="1893.76" width="136.74" height="136.74" style="fill:rgb(102,62,33);fill-rule:nonzero;"/>
            <rect x="2781.05" y="1893.76" width="136.75" height="136.74" style="fill:rgb(102,62,33);fill-rule:nonzero;"/>
            <rect x="2917.8" y="1893.76" width="136.74" height="136.74" style="fill:rgb(226,19,58);fill-rule:nonzero;"/>
            <rect x="3054.54" y="1893.76" width="136.74" height="136.74" style="fill-rule:nonzero;"/>
            <rect x="593.204" y="2167.24" width="136.741" height="136.74" style="fill:rgb(244,183,137);fill-rule:nonzero;"/>
            <rect x="456.463" y="2167.24" width="136.741" height="136.74" style="fill:rgb(244,183,137);fill-rule:nonzero;"/>
            <rect x="319.723" y="2167.24" width="136.74" height="136.74" style="fill-rule:nonzero;"/>
            <rect x="866.686" y="2167.24" width="136.744" height="136.74" style="fill:rgb(255,202,159);fill-rule:nonzero;"/>
            <rect x="729.945" y="2167.24" width="136.741" height="136.74" style="fill:rgb(102,62,33);fill-rule:nonzero;"/>
            <rect x="1003.43" y="2167.24" width="136.74" height="136.74" style="fill:rgb(255,202,159);fill-rule:nonzero;"/>
            <rect x="1140.17" y="2167.24" width="136.74" height="136.74" style="fill:white;fill-rule:nonzero;"/>
            <rect x="1550.39" y="2167.24" width="136.74" height="136.74" style="fill:rgb(255,202,159);fill-rule:nonzero;"/>
            <rect x="1687.13" y="2167.24" width="136.74" height="136.74" style="fill:rgb(255,202,159);fill-rule:nonzero;"/>
            <rect x="1276.91" y="2167.24" width="136.74" height="136.74" style="fill:rgb(8,116,183);fill-rule:nonzero;"/>
            <rect x="1413.65" y="2167.24" width="136.74" height="136.74" style="fill:rgb(244,183,137);fill-rule:nonzero;"/>
            <rect x="1823.87" y="2167.24" width="136.74" height="136.74" style="fill:rgb(255,202,159);fill-rule:nonzero;"/>
            <rect x="1960.61" y="2167.24" width="136.74" height="136.74" style="fill:rgb(244,183,137);fill-rule:nonzero;"/>
            <rect x="2097.35" y="2167.24" width="136.74" height="136.74" style="fill:rgb(8,116,183);fill-rule:nonzero;"/>
            <rect x="2234.09" y="2167.24" width="136.74" height="136.74" style="fill:white;fill-rule:nonzero;"/>
            <rect x="2370.83" y="2167.24" width="136.74" height="136.74" style="fill:rgb(255,202,159);fill-rule:nonzero;"/>
            <rect x="2507.57" y="2167.24" width="136.74" height="136.74" style="fill:rgb(255,202,159);fill-rule:nonzero;"/>
            <rect x="2644.31" y="2167.24" width="136.74" height="136.74" style="fill:rgb(102,62,33);fill-rule:nonzero;"/>
            <rect x="2781.05" y="2167.24" width="136.75" height="136.74" style="fill:rgb(244,183,137);fill-rule:nonzero;"/>
            <rect x="2917.8" y="2167.24" width="136.74" height="136.74" style="fill:rgb(244,183,137);fill-rule:nonzero;"/>
            <rect x="3054.54" y="2167.24" width="136.74" height="136.74" style="fill-rule:nonzero;"/>
            <rect x="593.204" y="2303.98" width="136.741" height="136.74" style="fill-rule:nonzero;"/>
            <rect x="456.463" y="2303.98" width="136.741" height="136.74" style="fill:rgb(244,183,137);fill-rule:nonzero;"/>
            <rect x="319.723" y="2303.98" width="136.74" height="136.74" style="fill-rule:nonzero;"/>
            <rect x="866.686" y="2303.98" width="136.744" height="136.74" style="fill:rgb(255,202,159);fill-rule:nonzero;"/>
            <rect x="729.945" y="2303.98" width="136.741" height="136.74" style="fill:rgb(255,202,159);fill-rule:nonzero;"/>
            <rect x="1003.43" y="2303.98" width="136.74" height="136.74" style="fill:rgb(255,202,159);fill-rule:nonzero;"/>
            <rect x="1140.17" y="2303.98" width="136.74" height="136.74" style="fill:rgb(244,183,137);fill-rule:nonzero;"/>
            <rect x="1550.39" y="2303.98" width="136.74" height="136.74" style="fill:rgb(255,202,159);fill-rule:nonzero;"/>
            <rect x="1687.13" y="2303.98" width="136.74" height="136.74" style="fill:rgb(255,202,159);fill-rule:nonzero;"/>
            <rect x="1276.91" y="2303.98" width="136.74" height="136.74" style="fill:rgb(244,183,137);fill-rule:nonzero;"/>
            <rect x="1413.65" y="2303.98" width="136.74" height="136.74" style="fill:rgb(255,202,159);fill-rule:nonzero;"/>
            <rect x="1823.87" y="2303.98" width="136.74" height="136.74" style="fill:rgb(255,202,159);fill-rule:nonzero;"/>
            <rect x="1960.61" y="2303.98" width="136.74" height="136.74" style="fill:rgb(255,202,159);fill-rule:nonzero;"/>
            <rect x="2097.35" y="2303.98" width="136.74" height="136.74" style="fill:rgb(244,183,137);fill-rule:nonzero;"/>
            <rect x="2234.09" y="2303.98" width="136.74" height="136.74" style="fill:rgb(244,183,137);fill-rule:nonzero;"/>
            <rect x="2370.83" y="2303.98" width="136.74" height="136.74" style="fill:rgb(255,202,159);fill-rule:nonzero;"/>
            <rect x="2507.57" y="2303.98" width="136.74" height="136.74" style="fill:rgb(255,202,159);fill-rule:nonzero;"/>
            <rect x="2644.31" y="2303.98" width="136.74" height="136.74" style="fill:rgb(255,202,159);fill-rule:nonzero;"/>
            <rect x="2781.05" y="2303.98" width="136.75" height="136.74" style="fill-rule:nonzero;"/>
            <rect x="2917.8" y="2303.98" width="136.74" height="136.74" style="fill:rgb(244,183,137);fill-rule:nonzero;"/>
            <rect x="3054.54" y="2303.98" width="136.74" height="136.74" style="fill-rule:nonzero;"/>
            <rect x="593.204" y="2440.72" width="136.741" height="136.74" style="fill-rule:nonzero;"/>
            <rect x="456.463" y="2440.72" width="136.741" height="136.74" style="fill:rgb(244,183,137);fill-rule:nonzero;"/>
            <rect x="319.723" y="2440.72" width="136.74" height="136.74" style="fill-rule:nonzero;"/>
            <rect x="866.686" y="2440.72" width="136.744" height="136.74" style="fill-rule:nonzero;"/>
            <rect x="729.945" y="2440.72" width="136.741" height="136.74" style="fill:rgb(255,202,159);fill-rule:nonzero;"/>
            <rect x="1003.43" y="2440.72" width="136.74" height="136.74" style="fill-rule:nonzero;"/>
            <rect x="1140.17" y="2440.72" width="136.74" height="136.74" style="fill-rule:nonzero;"/>
            <rect x="1550.39" y="2440.72" width="136.74" height="136.74" style="fill:rgb(255,202,159);fill-rule:nonzero;"/>
            <rect x="1687.13" y="2440.72" width="136.74" height="136.74" style="fill:rgb(255,202,159);fill-rule:nonzero;"/>
            <rect x="1276.91" y="2440.72" width="136.74" height="136.74" style="fill:rgb(244,183,137);fill-rule:nonzero;"/>
            <rect x="1413.65" y="2440.72" width="136.74" height="136.74" style="fill:rgb(255,202,159);fill-rule:nonzero;"/>
            <rect x="1823.87" y="2440.72" width="136.74" height="136.74" style="fill:rgb(255,202,159);fill-rule:nonzero;"/>
            <rect x="1960.61" y="2440.72" width="136.74" height="136.74" style="fill:rgb(255,202,159);fill-rule:nonzero;"/>
            <rect x="2097.35" y="2440.72" width="136.74" height="136.74" style="fill:rgb(244,183,137);fill-rule:nonzero;"/>
            <rect x="2234.09" y="2440.72" width="136.74" height="136.74" style="fill-rule:nonzero;"/>
            <rect x="2370.83" y="2440.72" width="136.74" height="136.74" style="fill-rule:nonzero;"/>
            <rect x="2507.57" y="2440.72" width="136.74" height="136.74" style="fill-rule:nonzero;"/>
            <rect x="2644.31" y="2440.72" width="136.74" height="136.74" style="fill:rgb(255,202,159);fill-rule:nonzero;"/>
            <rect x="2781.05" y="2440.72" width="136.75" height="136.74" style="fill-rule:nonzero;"/>
            <rect x="2917.8" y="2440.72" width="136.74" height="136.74" style="fill:rgb(244,183,137);fill-rule:nonzero;"/>
            <rect x="3054.54" y="2440.72" width="136.74" height="136.74" style="fill-rule:nonzero;"/>
            <rect x="593.204" y="2577.46" width="136.741" height="136.74" style="fill:rgb(244,183,137);fill-rule:nonzero;"/>
            <rect x="456.463" y="2577.46" width="136.741" height="136.74" style="fill:rgb(244,183,137);fill-rule:nonzero;"/>
            <rect x="319.723" y="2577.46" width="136.74" height="136.74" style="fill-rule:nonzero;"/>
            <rect x="866.686" y="2577.46" width="136.744" height="136.74" style="fill:rgb(244,183,137);fill-rule:nonzero;"/>
            <rect x="729.945" y="2577.46" width="136.741" height="136.74" style="fill:rgb(255,202,159);fill-rule:nonzero;"/>
            <rect x="1003.43" y="2577.46" width="136.74" height="136.74" style="fill-rule:nonzero;"/>
            <rect x="1140.17" y="2577.46" width="136.74" height="136.74" style="fill-rule:nonzero;"/>
            <rect x="1550.39" y="2577.46" width="136.74" height="136.74" style="fill:rgb(255,202,159);fill-rule:nonzero;"/>
            <rect x="1687.13" y="2577.46" width="136.74" height="136.74" style="fill:rgb(255,202,159);fill-rule:nonzero;"/>
            <rect x="1276.91" y="2577.46" width="136.74" height="136.74" style="fill-rule:nonzero;"/>
            <rect x="1413.65" y="2577.46" width="136.74" height="136.74" style="fill:rgb(244,183,137);fill-rule:nonzero;"/>
            <rect x="1823.87" y="2577.46" width="136.74" height="136.74" style="fill:rgb(255,202,159);fill-rule:nonzero;"/>
            <rect x="1960.61" y="2577.46" width="136.74" height="136.74" style="fill:rgb(244,183,137);fill-rule:nonzero;"/>
            <rect x="2097.35" y="2577.46" width="136.74" height="136.74" style="fill-rule:nonzero;"/>
            <rect x="2234.09" y="2577.46" width="136.74" height="136.74" style="fill-rule:nonzero;"/>
            <rect x="2370.83" y="2577.46" width="136.74" height="136.74" style="fill-rule:nonzero;"/>
            <rect x="2507.57" y="2577.46" width="136.74" height="136.74" style="fill:rgb(244,183,137);fill-rule:nonzero;"/>
            <rect x="2644.31" y="2577.46" width="136.74" height="136.74" style="fill:rgb(255,202,159);fill-rule:nonzero;"/>
            <rect x="2781.05" y="2577.46" width="136.75" height="136.74" style="fill:rgb(244,183,137);fill-rule:nonzero;"/>
            <rect x="2917.8" y="2577.46" width="136.74" height="136.74" style="fill:rgb(244,183,137);fill-rule:nonzero;"/>
            <rect x="3054.54" y="2577.46" width="136.74" height="136.74" style="fill-rule:nonzero;"/>
            <rect x="593.204" y="2714.2" width="136.741" height="136.74" style="fill-rule:nonzero;"/>
            <rect x="456.463" y="2714.2" width="136.741" height="136.74" style="fill-rule:nonzero;"/>
            <rect x="866.686" y="2714.2" width="136.744" height="136.74" style="fill:rgb(244,183,137);fill-rule:nonzero;"/>
            <rect x="729.945" y="2714.2" width="136.741" height="136.74" style="fill:rgb(255,202,159);fill-rule:nonzero;"/>
            <rect x="1003.43" y="2714.2" width="136.74" height="136.74" style="fill-rule:nonzero;"/>
            <rect x="1140.17" y="2714.2" width="136.74" height="136.74" style="fill-rule:nonzero;"/>
            <rect x="1550.39" y="2714.2" width="136.74" height="136.74" style="fill:rgb(244,183,137);fill-rule:nonzero;"/>
            <rect x="1687.13" y="2714.2" width="136.74" height="136.74" style="fill:rgb(244,183,137);fill-rule:nonzero;"/>
            <rect x="1276.91" y="2714.2" width="136.74" height="136.74" style="fill-rule:nonzero;"/>
            <rect x="1413.65" y="2714.2" width="136.74" height="136.74" style="fill-rule:nonzero;"/>
            <rect x="1823.87" y="2714.2" width="136.74" height="136.74" style="fill:rgb(244,183,137);fill-rule:nonzero;"/>
            <rect x="1960.61" y="2714.2" width="136.74" height="136.74" style="fill-rule:nonzero;"/>
            <rect x="2097.35" y="2714.2" width="136.74" height="136.74" style="fill-rule:nonzero;"/>
            <rect x="2234.09" y="2714.2" width="136.74" height="136.74" style="fill-rule:nonzero;"/>
            <rect x="2370.83" y="2714.2" width="136.74" height="136.74" style="fill-rule:nonzero;"/>
            <rect x="2507.57" y="2714.2" width="136.74" height="136.74" style="fill:rgb(244,183,137);fill-rule:nonzero;"/>
            <rect x="2644.31" y="2714.2" width="136.74" height="136.74" style="fill:rgb(255,202,159);fill-rule:nonzero;"/>
            <rect x="2781.05" y="2714.2" width="136.75" height="136.74" style="fill-rule:nonzero;"/>
            <rect x="593.204" y="2850.94" width="136.741" height="136.74" style="fill-rule:nonzero;"/>
            <rect x="866.686" y="2850.94" width="136.744" height="136.74" style="fill:rgb(244,183,137);fill-rule:nonzero;"/>
            <rect x="729.945" y="2850.94" width="136.741" height="136.74" style="fill:rgb(244,183,137);fill-rule:nonzero;"/>
            <rect x="1003.43" y="2850.94" width="136.74" height="136.74" style="fill:rgb(244,183,137);fill-rule:nonzero;"/>
            <rect x="1140.17" y="2850.94" width="136.74" height="136.74" style="fill:rgb(244,183,137);fill-rule:nonzero;"/>
            <rect x="1550.39" y="2850.94" width="136.74" height="136.74" style="fill-rule:nonzero;"/>
            <rect x="1687.13" y="2850.94" width="136.74" height="136.74" style="fill-rule:nonzero;"/>
            <rect x="1276.91" y="2850.94" width="136.74" height="136.74" style="fill-rule:nonzero;"/>
            <rect x="1413.65" y="2850.94" width="136.74" height="136.74" style="fill:rgb(244,183,137);fill-rule:nonzero;"/>
            <rect x="1823.87" y="2850.94" width="136.74" height="136.74" style="fill-rule:nonzero;"/>
            <rect x="1960.61" y="2850.94" width="136.74" height="136.74" style="fill:rgb(244,183,137);fill-rule:nonzero;"/>
            <rect x="2097.35" y="2850.94" width="136.74" height="136.74" style="fill-rule:nonzero;"/>
            <rect x="2234.09" y="2850.94" width="136.74" height="136.74" style="fill:rgb(244,183,137);fill-rule:nonzero;"/>
            <rect x="2370.83" y="2850.94" width="136.74" height="136.74" style="fill:rgb(244,183,137);fill-rule:nonzero;"/>
            <rect x="2507.57" y="2850.94" width="136.74" height="136.74" style="fill:rgb(244,183,137);fill-rule:nonzero;"/>
            <rect x="2644.31" y="2850.94" width="136.74" height="136.74" style="fill:rgb(244,183,137);fill-rule:nonzero;"/>
            <rect x="866.686" y="2987.68" width="136.744" height="136.75" style="fill:rgb(244,183,137);fill-rule:nonzero;"/>
            <rect x="729.945" y="2987.68" width="136.741" height="136.75" style="fill-rule:nonzero;"/>
            <rect x="1003.43" y="2987.68" width="136.74" height="136.75" style="fill:rgb(255,202,159);fill-rule:nonzero;"/>
            <rect x="1140.17" y="2987.68" width="136.74" height="136.75" style="fill:rgb(255,202,159);fill-rule:nonzero;"/>
            <rect x="1550.39" y="2987.68" width="136.74" height="136.75" style="fill:rgb(244,33,63);fill-rule:nonzero;"/>
            <rect x="1687.13" y="2987.68" width="136.74" height="136.75" style="fill:rgb(244,33,63);fill-rule:nonzero;"/>
            <rect x="1276.91" y="2987.68" width="136.74" height="136.75" style="fill:rgb(255,202,159);fill-rule:nonzero;"/>
            <rect x="1413.65" y="2987.68" width="136.74" height="136.75" style="fill:rgb(226,19,58);fill-rule:nonzero;"/>
            <rect x="1823.87" y="2987.68" width="136.74" height="136.75" style="fill:rgb(244,33,63);fill-rule:nonzero;"/>
            <rect x="1960.61" y="2987.68" width="136.74" height="136.75" style="fill:rgb(226,19,58);fill-rule:nonzero;"/>
            <rect x="2097.35" y="2987.68" width="136.74" height="136.75" style="fill:rgb(255,202,159);fill-rule:nonzero;"/>
            <rect x="2234.09" y="2987.68" width="136.74" height="136.75" style="fill:rgb(255,202,159);fill-rule:nonzero;"/>
            <rect x="2370.83" y="2987.68" width="136.74" height="136.75" style="fill:rgb(255,202,159);fill-rule:nonzero;"/>
            <rect x="2507.57" y="2987.68" width="136.74" height="136.75" style="fill:rgb(244,183,137);fill-rule:nonzero;"/>
            <rect x="866.686" y="3124.43" width="136.744" height="136.74" style="fill-rule:nonzero;"/>
            <rect x="1003.43" y="3124.43" width="136.74" height="136.74" style="fill-rule:nonzero;"/>
            <rect x="1140.17" y="3124.43" width="136.74" height="136.74" style="fill:rgb(244,183,137);fill-rule:nonzero;"/>
            <rect x="1550.39" y="3124.43" width="136.74" height="136.74" style="fill:rgb(244,33,63);fill-rule:nonzero;"/>
            <rect x="1687.13" y="3124.43" width="136.74" height="136.74" style="fill:rgb(244,33,63);fill-rule:nonzero;"/>
            <rect x="1276.91" y="3124.43" width="136.74" height="136.74" style="fill:rgb(244,183,137);fill-rule:nonzero;"/>
            <rect x="1413.65" y="3124.43" width="136.74" height="136.74" style="fill:rgb(255,202,159);fill-rule:nonzero;"/>
            <rect x="1823.87" y="3124.43" width="136.74" height="136.74" style="fill:rgb(244,33,63);fill-rule:nonzero;"/>
            <rect x="1960.61" y="3124.43" width="136.74" height="136.74" style="fill:rgb(255,202,159);fill-rule:nonzero;"/>
            <rect x="2097.35" y="3124.43" width="136.74" height="136.74" style="fill:rgb(244,183,137);fill-rule:nonzero;"/>
            <rect x="2234.09" y="3124.43" width="136.74" height="136.74" style="fill:rgb(244,183,137);fill-rule:nonzero;"/>
            <rect x="2370.83" y="3124.43" width="136.74" height="136.74" style="fill:rgb(244,183,137);fill-rule:nonzero;"/>
            <rect x="1003.43" y="3261.17" width="136.74" height="136.74" style="fill-rule:nonzero;"/>
            <rect x="1140.17" y="3261.17" width="136.74" height="136.74" style="fill:rgb(244,183,137);fill-rule:nonzero;"/>
            <rect x="1550.39" y="3261.17" width="136.74" height="136.74" style="fill:rgb(255,202,159);fill-rule:nonzero;"/>
            <rect x="1687.13" y="3261.17" width="136.74" height="136.74" style="fill:rgb(255,202,159);fill-rule:nonzero;"/>
            <rect x="1276.91" y="3261.17" width="136.74" height="136.74" style="fill:rgb(244,183,137);fill-rule:nonzero;"/>
            <rect x="1413.65" y="3261.17" width="136.74" height="136.74" style="fill:rgb(255,202,159);fill-rule:nonzero;"/>
            <rect x="1823.87" y="3261.17" width="136.74" height="136.74" style="fill:rgb(255,202,159);fill-rule:nonzero;"/>
            <rect x="1960.61" y="3261.17" width="136.74" height="136.74" style="fill:rgb(255,202,159);fill-rule:nonzero;"/>
            <rect x="2097.35" y="3261.17" width="136.74" height="136.74" style="fill:rgb(244,183,137);fill-rule:nonzero;"/>
            <rect x="2234.09" y="3261.17" width="136.74" height="136.74" style="fill:rgb(244,183,137);fill-rule:nonzero;"/>
            <rect x="1140.17" y="3397.91" width="136.74" height="136.74" style="fill-rule:nonzero;"/>
            <rect x="1550.39" y="3397.91" width="136.74" height="136.74" style="fill:rgb(255,202,159);fill-rule:nonzero;"/>
            <rect x="1687.13" y="3397.91" width="136.74" height="136.74" style="fill:rgb(255,202,159);fill-rule:nonzero;"/>
            <rect x="1276.91" y="3397.91" width="136.74" height="136.74" style="fill:rgb(244,183,137);fill-rule:nonzero;"/>
            <rect x="1413.65" y="3397.91" width="136.74" height="136.74" style="fill:rgb(244,183,137);fill-rule:nonzero;"/>
            <rect x="1823.87" y="3397.91" width="136.74" height="136.74" style="fill:rgb(255,202,159);fill-rule:nonzero;"/>
            <rect x="1960.61" y="3397.91" width="136.74" height="136.74" style="fill:rgb(244,183,137);fill-rule:nonzero;"/>
            <rect x="2097.35" y="3397.91" width="136.74" height="136.74" style="fill:rgb(244,183,137);fill-rule:nonzero;"/>
            <rect x="1550.39" y="3534.65" width="136.74" height="136.74" style="fill:rgb(244,183,137);fill-rule:nonzero;"/>
            <rect x="1687.13" y="3534.65" width="136.74" height="136.74" style="fill:rgb(244,183,137);fill-rule:nonzero;"/>
            <rect x="1276.91" y="3534.65" width="136.74" height="136.74" style="fill-rule:nonzero;"/>
            <rect x="1413.65" y="3534.65" width="136.74" height="136.74" style="fill:rgb(244,183,137);fill-rule:nonzero;"/>
            <rect x="1823.87" y="3534.65" width="136.74" height="136.74" style="fill:rgb(244,183,137);fill-rule:nonzero;"/>
            <rect x="1960.61" y="3534.65" width="136.74" height="136.74" style="fill:rgb(244,183,137);fill-rule:nonzero;"/>
            <rect x="1550.39" y="3671.39" width="136.74" height="136.74" style="fill-rule:nonzero;"/>
            <rect x="1687.13" y="3671.39" width="136.74" height="136.74" style="fill-rule:nonzero;"/>
            <rect x="1413.65" y="3671.39" width="136.74" height="136.74" style="fill-rule:nonzero;"/>
            <rect x="1823.87" y="3671.39" width="136.74" height="136.74" style="fill-rule:nonzero;"/>
            <rect x="1960.61" y="3671.39" width="136.74" height="136.74" style="fill-rule:nonzero;"/>
            <rect x="2097.35" y="3534.65" width="136.74" height="136.74" style="fill-rule:nonzero;"/>
            <rect x="2234.09" y="3397.91" width="136.74" height="136.74" style="fill-rule:nonzero;"/>
            <rect x="2370.83" y="3261.17" width="136.74" height="136.74" style="fill-rule:nonzero;"/>
            <rect x="2507.57" y="3124.43" width="136.74" height="136.74" style="fill-rule:nonzero;"/>
            <rect x="2644.31" y="2987.68" width="136.74" height="136.75" style="fill-rule:nonzero;"/>
            <rect x="2781.05" y="2850.94" width="136.75" height="136.74" style="fill-rule:nonzero;"/>
            <rect x="2917.8" y="2714.2" width="136.74" height="136.74" style="fill-rule:nonzero;"/>
            <rect x="593.204" y="2030.5" width="136.741" height="136.74" style="fill:rgb(226,19,58);fill-rule:nonzero;"/>
            <rect x="456.463" y="2030.5" width="136.741" height="136.74" style="fill-rule:nonzero;"/>
            <rect x="866.686" y="2030.5" width="136.744" height="136.74" style="fill:rgb(255,202,159);fill-rule:nonzero;"/>
            <rect x="729.945" y="2030.5" width="136.741" height="136.74" style="fill:rgb(102,62,33);fill-rule:nonzero;"/>
            <rect x="1003.43" y="2030.5" width="136.74" height="136.74" style="fill:rgb(255,202,159);fill-rule:nonzero;"/>
            <rect x="1140.17" y="2030.5" width="136.74" height="136.74" style="fill:white;fill-rule:nonzero;"/>
            <rect x="1550.39" y="2030.5" width="136.74" height="136.74" style="fill:rgb(244,183,137);fill-rule:nonzero;"/>
            <rect x="1687.13" y="2030.5" width="136.74" height="136.74" style="fill:rgb(244,183,137);fill-rule:nonzero;"/>
            <rect x="1276.91" y="2030.5" width="136.74" height="136.74" style="fill:rgb(17,128,211);fill-rule:nonzero;"/>
            <rect x="1413.65" y="2030.5" width="136.74" height="136.74" style="fill-rule:nonzero;"/>
            <rect x="1823.87" y="2030.5" width="136.74" height="136.74" style="fill:rgb(244,183,137);fill-rule:nonzero;"/>
            <rect x="1960.61" y="2030.5" width="136.74" height="136.74" style="fill-rule:nonzero;"/>
            <rect x="2097.35" y="2030.5" width="136.74" height="136.74" style="fill:rgb(17,128,211);fill-rule:nonzero;"/>
            <rect x="2234.09" y="2030.5" width="136.74" height="136.74" style="fill:white;fill-rule:nonzero;"/>
            <rect x="2370.83" y="2030.5" width="136.74" height="136.74" style="fill:rgb(255,202,159);fill-rule:nonzero;"/>
            <rect x="2507.57" y="2030.5" width="136.74" height="136.74" style="fill:rgb(255,202,159);fill-rule:nonzero;"/>
            <rect x="2644.31" y="2030.5" width="136.74" height="136.74" style="fill:rgb(102,62,33);fill-rule:nonzero;"/>
            <rect x="2781.05" y="2030.5" width="136.75" height="136.74" style="fill:rgb(226,19,58);fill-rule:nonzero;"/>
            <rect x="2917.8" y="2030.5" width="136.74" height="136.74" style="fill-rule:nonzero;"/>
            <rect x="2917.8" y="1210.06" width="136.74" height="136.74" style="fill-rule:nonzero;"/>
            <rect x="2917.8" y="1346.8" width="136.74" height="136.74" style="fill-rule:nonzero;"/>
        </g>
    </g>
</svg>
