<?xml version="1.0" encoding="UTF-8" standalone="no"?>
<!DOCTYPE svg PUBLIC "-//W3C//DTD SVG 1.1//EN" "http://www.w3.org/Graphics/SVG/1.1/DTD/svg11.dtd">
<svg width="100%" height="100%" viewBox="0 0 369 369" version="1.1" xmlns="http://www.w3.org/2000/svg" xmlns:xlink="http://www.w3.org/1999/xlink" xml:space="preserve" xmlns:serif="http://www.serif.com/" style="fill-rule:evenodd;clip-rule:evenodd;stroke-linejoin:round;stroke-miterlimit:2;">
    <g transform="matrix(1,0,0,1,-0.438999,-0.920013)">
        <g>
            <path d="M0.439,0.92L38.84,0.92L38.84,26.84L26.359,26.84L26.359,343.641L253.879,343.641L253.879,369.56L0.439,369.56L0.439,0.92ZM284.6,343.641L284.6,369.56L369.08,369.56L369.08,0.92L69.56,0.92L69.56,26.84L343.16,26.84L343.16,343.641L284.6,343.641Z" style="fill:white;"/>
            <rect x="150.433" y="252.921" width="25.92" height="109.686" style="fill:white;"/>
            <path d="M52.279,52.76L317.24,52.76L317.24,185.24L291.321,185.24L291.321,78.68L78.199,78.68L78.199,291.801L95.345,291.801L95.345,317.721L52.279,317.721L52.279,52.76ZM317.24,215.96L291.321,215.96L291.321,277.711L317.24,277.711L317.24,215.96ZM126.065,291.801L126.065,317.721L317.24,317.721L317.24,277.711L291.321,277.711L291.321,291.801L126.065,291.801Z" style="fill:white;"/>
            <path d="M104.119,104.599L169.399,104.599L169.399,130.519L130.038,130.519L130.038,239.961L174.32,239.961L174.32,265.881L104.119,265.881L104.119,104.599ZM200.12,104.599L265.401,104.599L265.401,265.881L222.979,265.881L222.979,239.961L239.481,239.961L239.481,130.519L200.12,130.519L200.12,104.599ZM192.259,265.881L192.259,239.961L174.32,239.961L174.32,265.881L192.259,265.881Z" style="fill:white;"/>
            <rect x="155.958" y="156.438" width="57.603" height="57.603" style="fill:white;"/>
            <rect x="246.2" y="139.04" width="58.093" height="25.92" style="fill:white;"/>
            <rect x="296.514" y="85.32" width="58.094" height="25.92" style="fill:white;"/>
        </g>
    </g>
</svg>
